<?xml version="1.0" encoding="UTF-8" standalone="no"?>
<svg
   version="1.1"
   id="_x32_"
   width="32"
   height="32"
   viewBox="0 0 20.48 20.48"
   xml:space="preserve"
   sodipodi:docname="overlay.svg"
   inkscape:version="1.4.2 (ebf0e940d0, 2025-05-08)"
   xmlns:inkscape="http://www.inkscape.org/namespaces/inkscape"
   xmlns:sodipodi="http://sodipodi.sourceforge.net/DTD/sodipodi-0.dtd"
   xmlns="http://www.w3.org/2000/svg"
   xmlns:svg="http://www.w3.org/2000/svg"><defs
   id="defs1" /><sodipodi:namedview
   id="namedview1"
   pagecolor="#505050"
   bordercolor="#eeeeee"
   borderopacity="1"
   inkscape:showpageshadow="0"
   inkscape:pageopacity="0"
   inkscape:pagecheckerboard="0"
   inkscape:deskcolor="#505050"
   inkscape:zoom="10.551395"
   inkscape:cx="27.247582"
   inkscape:cy="26.963259"
   inkscape:window-width="2536"
   inkscape:window-height="1576"
   inkscape:window-x="0"
   inkscape:window-y="0"
   inkscape:window-maximized="0"
   inkscape:current-layer="_x32_" />
<style
   type="text/css"
   id="style1">
<![CDATA[
	.st0{fill:#000000;}
]]>
</style>
<g
   id="g1"
   transform="matrix(0.015,0,0,0.015,6.4,6.3999925)">
	<path
   class="st0"
   d="m 512,224.438 c 0,-63.766 -51.703,-115.469 -115.484,-115.469 -8.781,0 -17.328,1 -25.531,2.859 C 365.656,52.984 316.219,6.875 256,6.875 c -60.234,0 -109.672,46.109 -114.984,104.953 -8.219,-1.859 -16.766,-2.859 -25.531,-2.859 C 51.703,108.969 0,160.672 0,224.438 c 0,47.594 28.797,88.469 69.906,106.141 -10.297,17.281 -16.234,37.484 -16.234,59.063 0,63.766 51.703,115.484 115.484,115.484 34.625,0 65.672,-15.266 86.844,-39.406 21.156,24.141 52.219,39.406 86.844,39.406 63.781,0 115.484,-51.719 115.484,-115.484 0,-21.578 -5.938,-41.781 -16.25,-59.063 C 483.203,312.906 512,272.031 512,224.438 Z M 256,372.531 c -53.563,0 -97,-43.406 -97,-97 0,-53.563 43.438,-96.984 97,-96.984 53.562,0 96.984,43.422 96.984,96.984 0,53.594 -43.421,97 -96.984,97 z"
   id="path1" />
</g>
</svg>
